<svg width="16" height="13" viewBox="0 0 16 13" fill="none" xmlns="http://www.w3.org/2000/svg">
<path d="M14.3438 3.25C14.9688 2.78125 15.5312 2.21875 15.9688 1.5625C15.4062 1.8125 14.75 2 14.0938 2.0625C14.7812 1.65625 15.2812 1.03125 15.5312 0.25C14.9062 0.625 14.1875 0.90625 13.4688 1.0625C12.8438 0.40625 12 0.03125 11.0625 0.03125C9.25 0.03125 7.78125 1.5 7.78125 3.3125C7.78125 3.5625 7.8125 3.8125 7.875 4.0625C5.15625 3.90625 2.71875 2.59375 1.09375 0.625C0.8125 1.09375 0.65625 1.65625 0.65625 2.28125C0.65625 3.40625 1.21875 4.40625 2.125 5C1.59375 4.96875 1.0625 4.84375 0.625 4.59375V4.625C0.625 6.21875 1.75 7.53125 3.25 7.84375C3 7.90625 2.6875 7.96875 2.40625 7.96875C2.1875 7.96875 2 7.9375 1.78125 7.90625C2.1875 9.21875 3.40625 10.1562 4.84375 10.1875C3.71875 11.0625 2.3125 11.5938 0.78125 11.5938C0.5 11.5938 0.25 11.5625 0 11.5312C1.4375 12.4688 3.15625 13 5.03125 13C11.0625 13 14.3438 8.03125 14.3438 3.6875C14.3438 3.53125 14.3438 3.40625 14.3438 3.25Z" fill="#1B3764"/>
</svg>
